<svg width="2048" height="1152" viewBox="0 0 2048 1152" fill="none" xmlns="http://www.w3.org/2000/svg">
<rect width="2048" height="1152" fill="#1E1E1E"/>
<rect width="2048" height="1152" fill="black"/>
<path d="M564.306 530.101C562.841 530.101 562.108 529.368 562.108 527.903V515.232C562.108 513.768 562.841 513.035 564.306 513.035H574.853C576.317 513.035 577.05 513.768 577.05 515.232V527.903C577.05 529.368 576.317 530.101 574.853 530.101H564.306ZM588.915 627.586C580.858 627.586 574.608 624.998 570.165 619.822C565.771 614.598 563.573 607.273 563.573 597.85V555.516H545.629V544.969H577.05V597.85C577.05 603.807 578.173 608.348 580.419 611.473C582.665 614.598 585.937 616.16 590.233 616.16H605.98V627.586H588.915ZM653.661 629.124C645.751 629.124 639.208 626.854 634.032 622.312C628.905 617.723 626.342 611.155 626.342 602.61C626.342 595.53 628.051 590.013 631.469 586.058C634.887 582.054 639.354 579.246 644.872 577.635C650.39 576.023 656.273 575.218 662.523 575.218H680.614V573.094C680.614 566.111 678.832 561.253 675.268 558.519C671.752 555.784 666.796 554.417 660.399 554.417C655.419 554.417 650.536 555.101 645.751 556.468C640.966 557.835 636.498 559.739 632.348 562.181V548.704C636.84 547.044 641.381 545.677 645.971 544.603C650.561 543.528 655.248 542.991 660.033 542.991C664.916 542.991 669.652 543.675 674.242 545.042C678.881 546.36 682.885 548.558 686.254 551.634C689.623 554.661 691.869 558.738 692.992 563.865C693.773 567.479 694.164 572.923 694.164 580.198V596.971C694.164 601.561 694.408 606.639 694.896 612.205C695.434 617.771 696.63 622.703 698.485 627H684.936C684.105 625.096 683.446 623.069 682.958 620.921C682.47 618.724 682.079 616.6 681.786 614.549C678.905 619.48 674.901 623.143 669.774 625.535C664.696 627.928 659.325 629.124 653.661 629.124ZM656.957 617.845C662.523 617.845 667.04 616.478 670.507 613.743C674.022 611.009 676.586 607.444 678.197 603.05C679.809 598.606 680.614 593.846 680.614 588.768V585.765H663.549C659.74 585.765 656.005 586.204 652.343 587.083C648.729 587.913 645.727 589.524 643.334 591.917C640.99 594.31 639.818 597.801 639.818 602.391C639.818 607.566 641.405 611.448 644.579 614.036C647.753 616.575 651.879 617.845 656.957 617.845ZM714.745 544.969H725.805L726.977 552C730.297 545.994 735.204 542.991 741.698 542.991C748.681 542.991 753.539 546.434 756.273 553.318C759.594 546.434 764.818 542.991 771.947 542.991C778.588 542.991 783.227 545.481 785.863 550.462C788.549 555.589 789.892 565.257 789.892 579.466V627H777.587V580.052C777.587 573.899 777.416 569.139 777.074 565.77C776.781 562.4 776.293 559.91 775.609 558.299C774.389 555.613 771.972 554.271 768.358 554.271C764.647 554.271 762.084 555.735 760.668 558.665C759.838 560.374 759.252 562.864 758.91 566.136C758.568 569.407 758.397 574.046 758.397 580.052V627H746.093V580.052C746.093 574.144 745.922 569.456 745.58 565.989C745.238 562.522 744.701 559.983 743.969 558.372C742.65 555.638 740.185 554.271 736.571 554.271C732.958 554.271 730.492 555.711 729.174 558.592C728.393 560.252 727.831 562.791 727.489 566.209C727.147 569.578 726.977 574.192 726.977 580.052V627H714.745V544.969ZM840.282 629.124C832.47 629.124 823.29 627.415 812.743 623.997V610.081C822.997 615.257 832.128 617.845 840.136 617.845C845.849 617.845 850.414 616.648 853.832 614.256C857.25 611.863 858.959 608.665 858.959 604.661C858.959 601.194 857.519 598.411 854.638 596.312C851.806 594.163 847.265 592.43 841.015 591.111L835.375 589.939C827.66 588.377 821.996 585.813 818.383 582.249C814.818 578.636 813.036 573.729 813.036 567.527C813.036 559.666 815.722 553.611 821.093 549.363C826.464 545.115 834.105 542.991 844.018 542.991C852.416 542.991 860.546 544.603 868.407 547.825V561.009C860.741 556.517 852.733 554.271 844.384 554.271C832.567 554.271 826.659 558.299 826.659 566.355C826.659 568.992 827.172 571.092 828.197 572.654C829.223 574.168 831.176 575.462 834.057 576.536C836.938 577.562 841.186 578.636 846.801 579.759L852.221 580.784C865.795 583.47 872.582 590.867 872.582 602.977C872.582 611.082 869.701 617.479 863.939 622.166C858.178 626.805 850.292 629.124 840.282 629.124ZM937.182 629.124C924.535 629.124 914.599 625.34 907.372 617.771C900.194 610.154 896.605 599.778 896.605 586.644C896.605 578.489 898.021 571.116 900.854 564.524C903.734 557.933 907.982 552.708 913.598 548.851C919.262 544.944 926.244 542.991 934.545 542.991C945.482 542.991 953.954 546.507 959.96 553.538C966.015 560.521 969.042 570.213 969.042 582.615V589.207H910.668V589.646C910.668 598.191 912.914 605.003 917.406 610.081C921.898 615.159 928.539 617.698 937.328 617.698C942.406 617.698 947.313 616.893 952.05 615.281C956.835 613.67 961.449 611.717 965.893 609.422V622.825C961.254 624.729 956.542 626.243 951.757 627.366C947.021 628.538 942.162 629.124 937.182 629.124ZM955.565 578.66C955.565 574.119 954.882 570.018 953.515 566.355C952.147 562.693 949.95 559.788 946.923 557.64C943.944 555.491 939.989 554.417 935.058 554.417C930.077 554.417 925.902 555.516 922.533 557.713C919.213 559.861 916.601 562.767 914.696 566.429C912.841 570.091 911.669 574.168 911.181 578.66H955.565ZM1023.17 629.124C1011.74 629.124 1003 625.438 996.947 618.064C990.941 610.643 987.938 599.998 987.938 586.131C987.938 572.215 990.966 561.546 997.021 554.124C1003.08 546.702 1011.77 542.991 1023.09 542.991C1034.42 542.991 1043.09 546.702 1049.1 554.124C1055.15 561.497 1058.18 572.19 1058.18 586.204C1058.18 600.12 1055.17 610.765 1049.17 618.138C1043.16 625.462 1034.5 629.124 1023.17 629.124ZM1023.09 617.698C1029.78 617.698 1034.91 614.964 1038.48 609.495C1042.09 604.026 1043.9 596.189 1043.9 585.984C1043.9 575.828 1042.09 568.04 1038.48 562.62C1034.91 557.151 1029.78 554.417 1023.09 554.417C1016.36 554.417 1011.18 557.151 1007.57 562.62C1004 568.04 1002.22 575.828 1002.22 585.984C1002.22 596.189 1004.03 604.026 1007.64 609.495C1011.25 614.964 1016.41 617.698 1023.09 617.698ZM1128.42 627.586C1120.36 627.586 1114.11 624.998 1109.67 619.822C1105.27 614.598 1103.08 607.273 1103.08 597.85V523.582H1081.47V513.035H1116.55V597.85C1116.55 603.807 1117.67 608.348 1119.92 611.473C1122.17 614.598 1125.44 616.16 1129.74 616.16H1145.48V627.586H1128.42ZM1203.56 628.978C1200.24 628.978 1197.44 627.83 1195.14 625.535C1192.85 623.24 1191.7 620.262 1191.7 616.6C1191.7 612.938 1192.85 609.959 1195.14 607.664C1197.44 605.369 1200.24 604.222 1203.56 604.222C1206.88 604.222 1209.69 605.369 1211.99 607.664C1214.28 609.959 1215.43 612.938 1215.43 616.6C1215.43 620.262 1214.28 623.24 1211.99 625.535C1209.69 627.83 1206.88 628.978 1203.56 628.978ZM1300.68 629.124C1292.04 629.124 1284.76 627.317 1278.86 623.704C1273 620.042 1268.55 614.964 1265.53 608.47C1262.55 601.976 1261.06 594.505 1261.06 586.058C1261.06 577.562 1262.57 570.091 1265.6 563.646C1268.63 557.151 1273.09 552.098 1279 548.484C1284.91 544.822 1292.24 542.991 1300.98 542.991C1305.52 542.991 1309.62 543.528 1313.28 544.603C1316.94 545.628 1320.68 547.19 1324.49 549.29V563.426C1321.02 560.35 1317.53 558.079 1314.01 556.614C1310.55 555.149 1306.59 554.417 1302.15 554.417C1295.56 554.417 1290.28 555.833 1286.33 558.665C1282.42 561.497 1279.59 565.306 1277.83 570.091C1276.12 574.876 1275.27 580.198 1275.27 586.058C1275.27 591.868 1276.15 597.19 1277.9 602.024C1279.66 606.81 1282.49 610.618 1286.4 613.45C1290.31 616.282 1295.53 617.698 1302.07 617.698C1306.37 617.698 1310.38 616.99 1314.09 615.574C1317.8 614.158 1321.26 611.912 1324.49 608.836V622.825C1317.5 627.024 1309.57 629.124 1300.68 629.124ZM1384.69 629.124C1373.27 629.124 1364.53 625.438 1358.47 618.064C1352.46 610.643 1349.46 599.998 1349.46 586.131C1349.46 572.215 1352.49 561.546 1358.54 554.124C1364.6 546.702 1373.29 542.991 1384.62 542.991C1395.95 542.991 1404.61 546.702 1410.62 554.124C1416.67 561.497 1419.7 572.19 1419.7 586.204C1419.7 600.12 1416.7 610.765 1410.69 618.138C1404.69 625.462 1396.02 629.124 1384.69 629.124ZM1384.62 617.698C1391.31 617.698 1396.43 614.964 1400 609.495C1403.61 604.026 1405.42 596.189 1405.42 585.984C1405.42 575.828 1403.61 568.04 1400 562.62C1396.43 557.151 1391.31 554.417 1384.62 554.417C1377.88 554.417 1372.7 557.151 1369.09 562.62C1365.53 568.04 1363.74 575.828 1363.74 585.984C1363.74 596.189 1365.55 604.026 1369.16 609.495C1372.78 614.964 1377.93 617.698 1384.62 617.698ZM1437.79 544.969H1448.85L1450.02 552C1453.34 545.994 1458.25 542.991 1464.75 542.991C1471.73 542.991 1476.59 546.434 1479.32 553.318C1482.64 546.434 1487.87 542.991 1494.99 542.991C1501.63 542.991 1506.27 545.481 1508.91 550.462C1511.6 555.589 1512.94 565.257 1512.94 579.466V627H1500.63V580.052C1500.63 573.899 1500.46 569.139 1500.12 565.77C1499.83 562.4 1499.34 559.91 1498.66 558.299C1497.44 555.613 1495.02 554.271 1491.41 554.271C1487.69 554.271 1485.13 555.735 1483.71 558.665C1482.88 560.374 1482.3 562.864 1481.96 566.136C1481.62 569.407 1481.44 574.046 1481.44 580.052V627H1469.14V580.052C1469.14 574.144 1468.97 569.456 1468.63 565.989C1468.29 562.522 1467.75 559.983 1467.02 558.372C1465.7 555.638 1463.23 554.271 1459.62 554.271C1456 554.271 1453.54 555.711 1452.22 558.592C1451.44 560.252 1450.88 562.791 1450.54 566.209C1450.19 569.578 1450.02 574.192 1450.02 580.052V627H1437.79V544.969Z" fill="white"/>
</svg>
