<svg width="1080" height="1080" viewBox="0 0 1080 1080" fill="none" xmlns="http://www.w3.org/2000/svg">
<rect width="1080" height="1080" fill="#1E1E1E"/>
<rect width="1080" height="1080" fill="black"/>
<path d="M269.738 430.463H238.244V411.786H274.499L284.753 371.015H252.282V352.216H289.27L301.965 301.557H321.496L308.801 352.216H338.708L351.525 301.557H371.057L358.239 352.216H388.024V371.015H353.723L343.469 411.786H373.986V430.463H338.708L326.013 481H306.481L319.299 430.463H289.27L276.452 481H257.043L269.738 430.463ZM324.06 411.786L334.191 371.015H304.284L294.03 411.786H324.06ZM420.373 430.463H388.879V411.786H425.134L435.388 371.015H402.917V352.216H439.904L452.6 301.557H472.131L459.436 352.216H489.343L502.16 301.557H521.691L508.874 352.216H538.659V371.015H504.357L494.104 411.786H524.621V430.463H489.343L476.647 481H457.116L469.934 430.463H439.904L427.087 481H407.678L420.373 430.463ZM474.694 411.786L484.826 371.015H454.919L444.665 411.786H474.694ZM571.008 430.463H539.514V411.786H575.769L586.022 371.015H553.552V352.216H590.539L603.234 301.557H622.766L610.07 352.216H639.978L652.795 301.557H672.326L659.509 352.216H689.294V371.015H654.992L644.738 411.786H675.256V430.463H639.978L627.282 481H607.751L620.568 430.463H590.539L577.722 481H558.312L571.008 430.463ZM625.329 411.786L635.461 371.015H605.554L595.3 411.786H625.329ZM721.643 430.463H690.148V411.786H726.403L736.657 371.015H704.187V352.216H741.174L753.869 301.557H773.4L760.705 352.216H790.612L803.43 301.557H822.961L810.144 352.216H839.929V371.015H805.627L795.373 411.786H825.891V430.463H790.612L777.917 481H758.386L771.203 430.463H741.174L728.356 481H708.947L721.643 430.463ZM775.964 411.786L786.096 371.015H756.188L745.935 411.786H775.964ZM269.738 721.463H238.244V702.786H274.499L284.753 662.015H252.282V643.216H289.27L301.965 592.557H321.496L308.801 643.216H338.708L351.525 592.557H371.057L358.239 643.216H388.024V662.015H353.723L343.469 702.786H373.986V721.463H338.708L326.013 772H306.481L319.299 721.463H289.27L276.452 772H257.043L269.738 721.463ZM324.06 702.786L334.191 662.015H304.284L294.03 702.786H324.06ZM420.373 721.463H388.879V702.786H425.134L435.388 662.015H402.917V643.216H439.904L452.6 592.557H472.131L459.436 643.216H489.343L502.16 592.557H521.691L508.874 643.216H538.659V662.015H504.357L494.104 702.786H524.621V721.463H489.343L476.647 772H457.116L469.934 721.463H439.904L427.087 772H407.678L420.373 721.463ZM474.694 702.786L484.826 662.015H454.919L444.665 702.786H474.694ZM571.008 721.463H539.514V702.786H575.769L586.022 662.015H553.552V643.216H590.539L603.234 592.557H622.766L610.07 643.216H639.978L652.795 592.557H672.326L659.509 643.216H689.294V662.015H654.992L644.738 702.786H675.256V721.463H639.978L627.282 772H607.751L620.568 721.463H590.539L577.722 772H558.312L571.008 721.463ZM625.329 702.786L635.461 662.015H605.554L595.3 702.786H625.329ZM721.643 721.463H690.148V702.786H726.403L736.657 662.015H704.187V643.216H741.174L753.869 592.557H773.4L760.705 643.216H790.612L803.43 592.557H822.961L810.144 643.216H839.929V662.015H805.627L795.373 702.786H825.891V721.463H790.612L777.917 772H758.386L771.203 721.463H741.174L728.356 772H708.947L721.643 721.463ZM775.964 702.786L786.096 662.015H756.188L745.935 702.786H775.964Z" fill="white"/>
</svg>
